<svg version="1" xmlns="http://www.w3.org/2000/svg" width="933.333" height="933.333" viewBox="0 0 700.000000 700.000000"><path d="M332.8 31.5c-.2.2-4.4.6-9.3.9-5 .3-9.9.7-11 1-1.1.2-4.5.7-7.5 1.1-20 2.5-51.7 10.9-72.9 19.4-22.7 9.1-50.7 24.6-69.3 38.4L155 98l15.8 14.2c14.6 13.1 30 27.1 36.1 32.7 1.4 1.3 5.7 5.1 9.5 8.5 3.7 3.3 9.1 8.2 11.9 10.7l5 4.6 7.6-4.5c4.2-2.5 11.4-6.3 16.1-8.4 4.7-2.1 9.4-4.3 10.5-4.8 10.2-4.9 35.1-11.8 52-14.4 16.7-2.6 48.8-2.7 62.2-.2 1 .2 3.8.7 6.3 1.1 2.5.4 5.4.9 6.5 1.2 1.1.2 3.1.6 4.5.9 5.1 1 23.7 6.8 29.5 9.1 9.9 4 28.6 13.2 34.5 17 11.9 7.7 13.8 9 22.6 16 18.8 14.7 35 32.8 49.1 54.8 7.9 12.3 19.8 39.1 23.7 53.7.8 2.9 1.9 6.9 2.5 8.8.5 1.9 1.2 4.8 1.5 6.5.2 1.6 1 5.5 1.6 8.5 3.3 16.1 3.5 57.2.5 71-.4 1.4-.8 3.6-1.1 5-.2 1.4-.7 3.8-1 5.5-.3 1.6-1.7 7-3.1 12-10.1 36.9-28.7 68.9-55.9 96-13.4 13.3-19.7 18.5-34.1 27.9-28.1 18.2-59.7 30-92.3 34.2-9.7 1.3-46.4 1-55-.5-4.1-.7-8.6-1.4-10-1.6-11.7-1.6-37.5-9.7-49.8-15.5-3.5-1.7-6.5-3-6.8-3-.2 0-4.6-2.3-9.7-5.2-24.3-13.5-45.4-31.2-62.7-52.7-1.9-2.3-4-4.8-4.6-5.4-2.3-2.6-14.4-21.7-18.7-29.7-10.4-19.4-20.2-48.1-22.3-65-.2-1.9-.9-6.6-1.5-10.4-1.9-11.4-1.5-43 .6-55.6.2-1.4.7-4.3 1-6.5.4-2.2.8-4.5.9-5 .1-.6.8-3.7 1.5-7 1.6-7.4 8.1-28.1 11.3-35.5 1.2-3 4.9-10.7 8.2-17l5.8-11.4-5-4.6c-9.4-8.6-21.7-19.7-26.2-23.6-2.5-2.1-5.2-4.6-6-5.4-4.3-4.4-40.1-36.2-40.4-35.9-6.2 7.6-29.6 49.5-29.6 53 0 .5-1.1 3.2-2.4 6.1-6.9 15.3-16.3 47-19 63.8-.3 1.9-.7 4.4-1 5.5-.5 2.4-1.7 11-2.1 14.5-.1 1.4-.6 5.6-1 9.5-1.5 13.4-.9 56.4 1 66.4.1.9.6 4.1 1 7.1 1.7 14.1 7.3 38 12.4 53.6 23.3 71.2 70.7 131.9 134.1 171.6 16.3 10.2 27.4 15.8 50.5 25.8 7.6 3.2 34.9 12.2 41.2 13.5 1 .2 6.3 1.3 11.8 2.4 10.3 2.1 12.7 2.5 20.5 3.6 2.5.3 5.6.8 7 1 8.4 1.3 20.9 1.9 38 1.9 17.5 0 37.5-1 39-1.9.3-.2 3.1-.6 6.1-.9 3-.3 6.5-.8 7.9-1.1 1.4-.3 5.9-1.1 10-1.9 15.1-2.9 35.4-8.9 51.5-15.1 11-4.3 25.3-10.5 28.9-12.6 1.1-.6 5.1-2.8 9-4.9 46.6-24.7 89.4-65.2 118.7-112.3 8.2-13 21.4-39.4 26-51.7 6-16.2 11.8-34.8 13.5-43.5.2-1.1.8-4.3 1.4-7 1.9-9.1 2.6-13.1 4.5-25.5 3.2-21 2.4-69.1-1.5-89.5-.5-2.8-1.2-6.3-1.4-7.9-1.9-11.2-6.3-28.7-10.3-41.1-2.7-8.5-11.6-31.3-13.8-35.5-.7-1.4-3.2-6.3-5.5-11-20.7-41.6-56.9-84.4-94-111-4.1-3-7.7-5.7-8-6-2-2.3-26.5-16.7-39.5-23.3-25.6-13-66.2-26.1-90-29.2-2.7-.3-7.9-1-11.5-1.6-3.6-.5-8.5-1.2-11-1.5-5.3-.6-46.7-1.4-47.2-.9z"/><path d="M331.5 208c-43.4 6.6-79 29.2-102 64.9-14.5 22.5-21.6 46.3-22.1 74.1-.2 16.6.7 24.7 4.2 38.2 13.6 52.6 55 92.8 107 104.2 12 2.6 13.6 2.8 29.4 3.2 23.1.5 41.9-3.4 62.6-13.1 43.1-20.1 73.3-60.5 80.8-108.2 1.6-10 1.9-32.1.6-39.3-.4-2.5-1.1-6.3-1.4-8.5-1-6.2-4.2-17.2-7.5-25.9-11-28.7-33.6-55.1-60.5-70.9-13.3-7.7-33.7-15.4-45.7-17.2-2.4-.4-6.3-1-8.7-1.5-5.3-1-30.1-1-36.7 0z"/></svg>